<svg width="45" height="55" viewBox="0 0 45 55" fill="none" xmlns="http://www.w3.org/2000/svg">
<g clip-path="url(#clip0_1497_6336)">
<path d="M44.88 1.44C44.26 0.92 43.39 0.49 42.33 0.49C41.37 0.49 40.47 0.83 39.71 1.44V0.91C40.26 0.45 41.19 0 42.33 0C43.47 0 44.35 0.48 44.87 0.91V1.44H44.88Z" fill="#573F16"/>
<path d="M41.8296 6.99996C41.3096 6.29996 40.9896 5.46996 40.8596 4.52996C40.2796 4.52996 39.9196 4.55996 39.7596 4.59996C39.7296 4.48996 39.6896 4.38996 39.6396 4.27996C39.9096 4.31996 40.3596 4.33996 40.9996 4.33996H43.6196C43.7996 4.07996 43.9296 3.91996 44.0096 3.86996C44.0296 3.86996 44.0396 3.86996 44.0596 3.86996C44.1096 3.88996 44.1596 3.92996 44.2096 3.96996C44.4696 4.20996 44.5996 4.36996 44.5996 4.42996C44.5996 4.48996 44.5796 4.51996 44.5396 4.51996H43.5296C43.4496 4.90996 43.3496 5.22996 43.2496 5.47996C43.0796 6.06996 42.8196 6.57996 42.4596 7.00996C43.0596 7.48996 43.7696 7.80996 44.5696 7.95996C44.5696 7.95996 44.5596 8.00996 44.5396 8.09996C44.4896 8.09996 44.4296 8.12996 44.3596 8.16996C44.2896 8.20996 44.2296 8.29996 44.1796 8.41996C44.1296 8.53996 44.0796 8.58996 44.0396 8.58996C43.8196 8.58996 43.3196 8.30996 42.5396 7.75996C42.3896 7.62996 42.2496 7.48996 42.1296 7.34996C41.5096 7.95996 40.6596 8.40996 39.5996 8.67996C39.5696 8.65996 39.5596 8.60996 39.5596 8.54996C40.5196 8.15996 41.2796 7.63996 41.8296 6.96996M42.8996 4.49996H40.9596C41.2496 5.41996 41.6196 6.13996 42.0796 6.63996C42.3396 6.25996 42.5396 5.83996 42.6796 5.38996C42.7796 5.08996 42.8496 4.78996 42.8996 4.49996ZM41.4096 3.07996C42.0996 3.16996 42.4496 3.39996 42.4796 3.77996C42.4796 3.85996 42.4796 3.92996 42.4496 3.98996C42.4096 4.09996 42.3296 4.15996 42.2296 4.15996C42.1496 4.15996 42.0296 4.03996 41.8796 3.77996C41.7396 3.51996 41.5696 3.30996 41.3696 3.15996C41.3796 3.13996 41.3996 3.11996 41.3996 3.07996" fill="#573F16"/>
<path d="M43.98 10.89C43.98 10.89 44.07 10.95 44.13 10.99C44.38 11.23 44.51 11.39 44.51 11.45C44.51 11.51 44.49 11.54 44.45 11.54H42.61C42.77 12.08 43.05 12.57 43.45 13.02C43.88 13.5 44.26 13.8 44.6 13.91C44.6 13.97 44.6 14.01 44.58 14.03C44.46 14.1 44.37 14.18 44.33 14.28C44.31 14.37 44.28 14.45 44.25 14.52C44.23 14.59 44.21 14.62 44.17 14.62C43.96 14.62 43.59 14.15 43.08 13.23C42.83 12.71 42.62 12.15 42.45 11.54H42.31V14.21H42.71C42.88 13.96 42.99 13.82 43.04 13.79C43.06 13.79 43.07 13.79 43.07 13.79C43.11 13.79 43.21 13.9 43.37 14.09C43.45 14.18 43.5 14.25 43.5 14.3C43.5 14.36 43.47 14.38 43.42 14.38H42.32C42.32 14.97 42.33 15.39 42.34 15.65C42.34 15.76 42.21 15.81 41.96 15.81C41.83 15.81 41.77 15.77 41.77 15.69C41.78 15.47 41.79 15.03 41.79 14.38H41.2C41.05 14.38 40.91 14.39 40.76 14.42C40.71 14.32 40.67 14.22 40.64 14.13C40.78 14.18 40.94 14.2 41.11 14.2H41.78V11.76C41.74 11.88 41.69 12.01 41.64 12.13C41.29 13.23 40.59 14.1 39.55 14.75C39.53 14.75 39.51 14.72 39.5 14.67C40.35 13.84 40.91 12.94 41.17 11.97C41.24 11.79 41.28 11.64 41.31 11.53H40.95C40.31 11.53 39.92 11.55 39.76 11.6C39.73 11.49 39.68 11.38 39.64 11.28C39.9 11.32 40.34 11.34 40.97 11.34H41.79V10.72C41.78 10.52 41.76 10.32 41.74 10.13C41.93 10.16 42.13 10.19 42.33 10.23C42.48 10.26 42.56 10.31 42.56 10.36C42.56 10.4 42.53 10.43 42.46 10.44C42.35 10.48 42.3 10.52 42.3 10.54V11.34H43.52C43.7 11.08 43.83 10.92 43.92 10.87C43.93 10.87 43.95 10.87 43.97 10.87" fill="#573F16"/>
<path d="M39.71 17.13C40.33 17.65 41.2 18.08 42.26 18.08C43.22 18.08 44.12 17.74 44.88 17.13V17.66C44.33 18.12 43.4 18.57 42.26 18.57C41.12 18.57 40.24 18.09 39.72 17.66V17.13H39.71Z" fill="#573F16"/>
<path d="M19.0196 1.56C18.3996 1.04 17.5296 0.609995 16.4696 0.609995C15.5096 0.609995 14.6096 0.949995 13.8496 1.56V1.03C14.3996 0.569995 15.3296 0.119995 16.4696 0.119995C17.6096 0.119995 18.4896 0.599995 19.0096 1.03V1.56H19.0196Z" fill="#573F16"/>
<path d="M14.3004 3.17004C14.8004 3.26004 15.0704 3.34004 15.1104 3.42004C15.1104 3.45004 15.0904 3.47004 15.0704 3.48004C15.0304 3.50004 14.9804 3.52004 14.9204 3.55004C14.8704 3.58004 14.8404 3.61004 14.8404 3.64004V4.58004H14.8704C15.0104 4.30004 15.1004 4.16004 15.1504 4.16004C15.1904 4.16004 15.2404 4.22004 15.3104 4.35004C15.3804 4.47004 15.4304 4.56004 15.4404 4.60004C15.6204 4.63004 15.8704 4.64004 16.1804 4.64004H16.7404V3.94004C16.3604 3.96004 15.9204 3.98004 15.4304 3.98004C15.4304 3.96004 15.4304 3.93004 15.4304 3.89004C16.5904 3.72004 17.4604 3.49004 18.0504 3.22004C18.4004 3.49004 18.5804 3.64004 18.5804 3.69004C18.5804 3.73004 18.5504 3.75004 18.5004 3.76004C18.4004 3.76004 18.3004 3.74004 18.2104 3.73004C17.9704 3.81004 17.6404 3.87004 17.2504 3.91004V4.65004H17.9304C18.0804 4.44004 18.2004 4.31004 18.2704 4.26004C18.2804 4.26004 18.3004 4.26004 18.3104 4.26004C18.3504 4.28004 18.3904 4.31004 18.4304 4.35004C18.6504 4.56004 18.7504 4.69004 18.7504 4.74004C18.7504 4.79004 18.7304 4.83004 18.7004 4.83004H17.2404V8.24004H17.9504V6.98004H17.8704C17.6804 6.98004 17.5304 7.00004 17.4204 7.03004C17.3804 6.93004 17.3504 6.84004 17.3304 6.76004C17.3804 6.78004 17.5604 6.79004 17.8704 6.80004H17.9504V5.77004H17.6304C17.5204 5.77004 17.4404 5.79004 17.3904 5.82004C17.3704 5.75004 17.3504 5.66004 17.3204 5.57004C17.3604 5.60004 17.4404 5.61004 17.5804 5.61004H17.8704C18.0204 5.41004 18.1304 5.31004 18.1904 5.31004C18.2304 5.31004 18.3104 5.37004 18.4404 5.48004C18.5804 5.61004 18.6504 5.70004 18.6504 5.75004C18.6504 5.78004 18.6204 5.82004 18.5704 5.85004C18.5404 5.87004 18.4904 5.91004 18.4304 5.97004V7.64004C18.4504 8.03004 18.4604 8.37004 18.4604 8.66004C18.4604 8.77004 18.3404 8.83004 18.1104 8.84004C18.0004 8.84004 17.9504 8.80004 17.9504 8.72004V8.40004H15.9704V8.67004C15.9504 8.79004 15.8504 8.86004 15.6704 8.86004C15.5604 8.86004 15.4904 8.84004 15.4604 8.80004C15.4604 8.27004 15.4604 7.75004 15.4804 7.24004V6.22004C15.4804 5.78004 15.4604 5.52004 15.4404 5.45004L15.9004 5.64004C16.0604 5.51004 16.2004 5.35004 16.3204 5.16004C16.5204 5.32004 16.6604 5.44004 16.7404 5.52004V4.84004H16.2304C15.7804 4.84004 15.5004 4.87004 15.4004 4.92004C15.3804 4.86004 15.3604 4.80004 15.3304 4.75004H14.8304V5.89004C14.9904 5.83004 15.1604 5.75004 15.3104 5.67004C15.3304 5.71004 15.3404 5.74004 15.3504 5.76004C15.1904 5.93004 15.0204 6.09004 14.8304 6.24004V8.12004C14.8304 8.64004 14.6504 8.90004 14.3004 8.90004C14.2304 8.90004 14.2004 8.87004 14.2004 8.80004C14.1804 8.69004 14.1204 8.58004 14.0204 8.49004C13.9504 8.43004 13.8404 8.38004 13.6904 8.34004C13.7004 8.32004 13.7104 8.28004 13.7104 8.24004C13.8004 8.24004 13.9804 8.25004 14.2504 8.25004C14.3104 8.25004 14.3404 8.20004 14.3404 8.09004V6.59004C14.2704 6.63004 14.2004 6.68004 14.1204 6.72004C14.0904 6.76004 14.0804 6.84004 14.0704 6.96004C14.0704 7.02004 14.0404 7.05004 14.0004 7.05004C13.9504 7.05004 13.8704 6.91004 13.7504 6.63004C13.7004 6.48004 13.6604 6.36004 13.6104 6.28004C13.8504 6.24004 14.0804 6.18004 14.3204 6.10004V4.77004H14.1704C13.9404 4.77004 13.8004 4.79004 13.7304 4.81004C13.7104 4.77004 13.6804 4.69004 13.6404 4.58004C13.7004 4.58004 13.8004 4.60004 13.9404 4.62004H14.3204V4.01004C14.3204 3.65004 14.3104 3.38004 14.2804 3.21004M16.7304 5.74004C16.6404 5.72004 16.5704 5.72004 16.5204 5.72004C16.3704 5.78004 16.1804 5.83004 15.9604 5.87004V6.88004H16.0604C16.1904 6.65004 16.2804 6.54004 16.3204 6.52004C16.3504 6.52004 16.4204 6.60004 16.5304 6.75004C16.6304 6.87004 16.6804 6.94004 16.6804 6.96004C16.6804 7.02004 16.6704 7.05004 16.6404 7.05004H15.9604V8.27004H16.7304V5.74004Z" fill="#573F16"/>
<path d="M17.6397 10.47C17.6397 10.47 17.7697 10.53 17.8997 10.65C18.0297 10.77 18.0997 10.86 18.0997 10.91C18.0997 10.95 18.0797 10.98 18.0197 11.01C17.9797 11.03 17.9297 11.07 17.8597 11.13V11.33H18.0297C18.1797 11.13 18.2697 11.02 18.2997 11C18.3197 11 18.3297 11 18.3297 11C18.3597 11 18.4497 11.09 18.5897 11.26C18.6697 11.33 18.6997 11.39 18.6997 11.43C18.6997 11.48 18.6697 11.51 18.6097 11.51H17.8597V11.69C17.8797 11.81 17.8897 11.93 17.8897 12.02C17.8897 12.12 17.7797 12.19 17.5497 12.2C17.4397 12.2 17.3897 12.16 17.3897 12.09H16.4097V12.53H17.5997C17.7297 12.36 17.8197 12.26 17.8797 12.22C17.8897 12.22 17.9097 12.22 17.9197 12.22C17.9597 12.24 17.9897 12.26 18.0297 12.29C18.1997 12.46 18.2897 12.57 18.2897 12.62C18.2897 12.68 18.2697 12.71 18.2397 12.71H16.4097V13.17H17.8897C18.0297 12.98 18.1297 12.87 18.1997 12.82C18.2197 12.82 18.2297 12.82 18.2397 12.82C18.2797 12.84 18.3097 12.87 18.3497 12.9C18.5497 13.09 18.6397 13.21 18.6397 13.27C18.6397 13.32 18.6197 13.35 18.5797 13.35H15.0397C14.3997 13.35 13.9997 13.37 13.8397 13.42C13.7997 13.32 13.7597 13.21 13.6997 13.1C13.9797 13.14 14.4597 13.16 15.1297 13.16H15.8997V12.7H15.3397C14.8197 12.7 14.4897 12.72 14.3597 12.77C14.3297 12.66 14.2797 12.55 14.2297 12.45C14.4497 12.49 14.8397 12.51 15.3797 12.51H15.8997V12.07C15.2897 12.07 14.8097 12.09 14.4297 12.12C14.3897 12.02 14.3597 11.94 14.3397 11.85C14.5297 11.87 15.0497 11.88 15.8997 11.89V11.48H14.6797C14.4197 11.48 14.1597 11.48 13.9097 11.51C13.8597 11.41 13.8197 11.32 13.7997 11.22C14.0997 11.26 14.4197 11.29 14.7597 11.29H15.8997V10.9H15.6997C15.1397 10.9 14.7197 10.92 14.4597 10.95C14.4397 10.87 14.4197 10.79 14.3897 10.7C14.6097 10.72 15.0697 10.74 15.7897 10.74H15.8997C15.8997 10.52 15.8897 10.34 15.8697 10.21C16.3897 10.29 16.6497 10.37 16.6497 10.44C16.6497 10.49 16.6197 10.52 16.5597 10.54C16.4497 10.59 16.3997 10.64 16.3897 10.67V10.74H17.3097C17.4697 10.54 17.5697 10.44 17.6297 10.44M18.2697 15.11C18.2697 15.11 18.3497 15.16 18.3897 15.2C18.6097 15.4 18.7197 15.53 18.7197 15.6C18.7197 15.65 18.6997 15.68 18.6597 15.68H15.0497C14.3897 15.68 13.9797 15.71 13.8197 15.75C13.7797 15.65 13.7397 15.54 13.6797 15.43C13.9597 15.47 14.4397 15.49 15.1197 15.49H17.8797C18.0297 15.28 18.1497 15.15 18.2197 15.11H18.2597H18.2697ZM14.3397 13.5L14.8297 13.71H17.4897C17.6297 13.54 17.7297 13.46 17.7897 13.46C17.8397 13.46 17.9397 13.52 18.0897 13.64C18.2297 13.75 18.2997 13.84 18.2997 13.89C18.2997 13.93 18.2697 13.96 18.2097 14C18.1097 14.06 18.0597 14.11 18.0497 14.14V14.65C18.0697 14.85 18.0797 14.98 18.0797 15.04C18.0797 15.17 17.9797 15.24 17.7897 15.25C17.6397 15.25 17.5697 15.21 17.5597 15.14H14.8797V15.16C14.8597 15.28 14.7597 15.35 14.5697 15.35C14.4597 15.35 14.3897 15.33 14.3697 15.29C14.3697 15 14.3697 14.72 14.3897 14.45V13.91C14.3897 13.68 14.3697 13.55 14.3497 13.5M14.8797 14.35H15.9197V13.87H14.8797V14.35ZM14.8797 14.97H15.9197V14.51H14.8797V14.97ZM16.4097 11.29H17.3897V10.9H16.4097V11.29ZM16.4097 11.9H17.3897V11.48H16.4097V11.9ZM16.4697 14.35H17.5697V13.87H16.4697V14.35ZM16.4697 14.97H17.5697V14.51H16.4697V14.97Z" fill="#573F16"/>
<path d="M13.8496 17.25C14.4696 17.77 15.3396 18.2 16.3996 18.2C17.3596 18.2 18.2596 17.86 19.0196 17.25V17.78C18.4696 18.24 17.5396 18.69 16.3996 18.69C15.2596 18.69 14.3796 18.21 13.8596 17.78V17.25H13.8496Z" fill="#573F16"/>
<path d="M33.5904 9.22998C34.2704 9.69998 34.6104 10.01 34.6104 10.16C34.6104 10.24 34.5604 10.28 34.4504 10.28C34.2804 10.24 34.1304 10.2 33.9904 10.17C33.3404 10.27 32.5004 10.35 31.4704 10.41V11.15H34.2803C34.5803 10.73 34.8104 10.47 34.9504 10.38C34.9804 10.38 35.0104 10.38 35.0404 10.39C35.1204 10.44 35.2003 10.5 35.2803 10.57C35.7203 10.98 35.9403 11.24 35.9403 11.35C35.9403 11.46 35.9004 11.52 35.8204 11.52H31.4704V12.33H33.5103C33.7903 12.04 33.9903 11.89 34.1003 11.88C34.2003 11.88 34.4004 12.01 34.7004 12.25C34.9804 12.48 35.1104 12.64 35.1104 12.74C35.1104 12.82 35.0504 12.9 34.9304 12.97C34.7504 13.1 34.6404 13.2 34.6104 13.26V14.37C34.6504 14.8 34.6604 15.07 34.6604 15.2C34.6604 15.42 34.5404 15.55 34.3004 15.59C34.3904 15.65 34.4804 15.71 34.5504 15.77C34.9804 16.18 35.1903 16.44 35.1903 16.55C35.1903 16.66 35.1504 16.72 35.0804 16.72H31.4604V17.77H34.2104C34.5404 17.3 34.7903 17.02 34.9403 16.93C34.9703 16.93 35.0003 16.93 35.0303 16.94C35.1203 16.99 35.2104 17.05 35.3004 17.13C35.7704 17.56 36.0103 17.85 36.0103 17.99C36.0103 18.09 35.9704 18.15 35.9004 18.15H28.6104C27.2804 18.15 26.4604 18.2 26.1304 18.3C26.0504 18.09 25.9604 17.88 25.8604 17.66C26.4304 17.74 27.3804 17.78 28.7204 17.78H30.4704V16.73H29.0704C27.9704 16.73 27.2904 16.78 27.0204 16.89C26.9404 16.67 26.8504 16.45 26.7504 16.24C27.2104 16.33 27.9804 16.37 29.0804 16.37H30.4704V15.4H28.4004V15.53C28.3404 15.78 28.1404 15.9 27.7804 15.9C27.5604 15.9 27.4204 15.86 27.3804 15.77C27.3804 15.17 27.3904 14.57 27.4104 13.98V12.82C27.4104 12.31 27.3804 12.02 27.3304 11.93L28.2404 12.32H30.4704V11.51H28.6804C27.3804 11.51 26.5704 11.56 26.2504 11.67C26.1804 11.45 26.0904 11.24 25.9804 11.02C26.5404 11.1 27.4904 11.14 28.8204 11.14H30.4704V10.45C29.4604 10.48 28.3204 10.5 27.0404 10.5C27.0404 10.5 27.0404 10.43 27.0204 10.32C30.5204 10.05 32.7104 9.67998 33.5904 9.21998M35.0504 7.56998C35.1404 7.61998 35.2304 7.67998 35.3204 7.75998C35.7904 8.19998 36.0303 8.48998 36.0303 8.61998C36.0303 8.72998 35.9903 8.78998 35.9203 8.78998H32.9104V9.05998C32.9104 9.27998 32.7204 9.38998 32.3604 9.39998C32.0704 9.39998 31.9304 9.31998 31.9304 9.15998C31.9304 9.02998 31.9304 8.90998 31.9404 8.79998H29.8104V9.43998C29.8104 9.65998 29.6104 9.76998 29.2404 9.77998C28.9504 9.77998 28.8104 9.69998 28.8104 9.53998C28.8104 9.26998 28.8204 9.02998 28.8304 8.79998H28.7104C27.3903 8.79998 26.5704 8.84998 26.2604 8.92998C26.1904 8.71998 26.1004 8.50998 25.9904 8.28998C26.5504 8.36998 27.4904 8.40998 28.8104 8.40998H28.8304V8.15998C28.8104 7.74998 28.8004 7.44998 28.7704 7.25998C29.7804 7.43998 30.2904 7.58998 30.2904 7.70998C30.2904 7.76998 30.2204 7.83998 30.0804 7.89998C29.8804 7.99998 29.7804 8.06998 29.7804 8.12998V8.41998H31.9404V8.13998C31.9204 7.72998 31.9104 7.42998 31.8904 7.22998C32.9004 7.40998 33.4004 7.55998 33.4004 7.67998C33.4004 7.74998 33.3304 7.80998 33.2004 7.86998C32.9904 7.96998 32.8804 8.03998 32.8804 8.09998V8.40998H34.2304C34.5604 7.94998 34.8004 7.66998 34.9604 7.56998C34.9904 7.56998 35.0204 7.56998 35.0504 7.57998M28.3904 13.66H30.4604V12.64H28.3904V13.66ZM28.3904 15.07H30.4604V13.98H28.3904V15.07ZM31.4604 13.66H33.6203V12.64H31.4604V13.66ZM31.4604 15.07H33.6203V13.98H31.4604V15.07ZM31.4604 15.41V16.38H33.5303C33.8203 15.98 34.0304 15.73 34.1604 15.63H34.0704C33.7804 15.63 33.6304 15.56 33.6104 15.41H31.4504H31.4604Z" fill="#573F16"/>
<path d="M30.42 30.09C30.51 30.09 30.69 30.21 30.97 30.44C31.22 30.64 31.35 30.79 31.35 30.9C31.35 30.97 31.3 31.04 31.2 31.11C31.05 31.23 30.96 31.32 30.93 31.38V32.43C30.97 32.84 31 33.1 31 33.21C31 33.47 30.82 33.6 30.46 33.61C30.19 33.61 30.05 33.54 30.04 33.39V33.06H27.64C27.62 34.04 27.57 34.8 27.49 35.34C27.42 35.86 27.28 36.39 27.04 36.96C26.74 37.72 26.43 38.23 26.12 38.47C26.06 38.47 26.01 38.44 25.96 38.37C26.19 37.76 26.38 37.01 26.51 36.13C26.63 35.41 26.7 34.2 26.71 32.51C26.71 31.09 26.71 30.22 26.7 29.88C26.7 29.6 26.69 29.27 26.66 28.9L27.67 29.39C28.94 29.05 29.74 28.61 30.08 28.07C30.81 28.59 31.18 28.91 31.18 29.06C31.18 29.15 31.12 29.19 31.01 29.19C30.84 29.16 30.68 29.12 30.52 29.08C29.92 29.45 28.96 29.65 27.64 29.67V30.72H29.89C30.16 30.3 30.34 30.09 30.44 30.08M27.64 31.03V32.71H30.05V31.03H27.64ZM27.77 34.14L28.65 34.51H29.87C30.11 34.15 30.28 33.96 30.38 33.96C30.46 33.96 30.63 34.07 30.89 34.27C31.12 34.46 31.24 34.6 31.24 34.69C31.24 34.75 31.19 34.82 31.08 34.88C30.93 35 30.85 35.09 30.82 35.13V36.78C30.85 37.42 30.86 37.83 30.86 38.02C30.86 38.25 30.7 38.36 30.37 38.37C30.12 38.37 29.99 38.31 29.98 38.19V37.84H28.69V38.6C28.65 38.81 28.47 38.91 28.17 38.91C27.98 38.91 27.86 38.87 27.82 38.8C27.82 38.06 27.83 37.34 27.85 36.63V35.19C27.84 34.58 27.81 34.22 27.77 34.12M28.68 37.52H29.97V34.79H28.68V37.52ZM32.44 27.98C33.43 28.19 33.93 28.37 33.93 28.51C33.93 28.57 33.88 28.61 33.78 28.65C33.58 28.69 33.43 28.73 33.33 28.78C33.18 29.51 33 30.18 32.79 30.77H34.46C34.74 30.33 34.94 30.07 35.07 29.99C35.08 29.97 35.11 29.97 35.14 29.97C35.22 30 35.37 30.12 35.57 30.33C35.85 30.61 36.01 30.81 36.04 30.93C36.04 31.04 36.02 31.11 35.97 31.12H35.09C35.07 31.51 35.05 31.79 35.02 31.98C34.85 33.72 34.5 35.12 33.99 36.19C34.12 36.41 34.26 36.59 34.4 36.74C34.98 37.41 35.54 37.85 36.09 38.06C36.09 38.11 36.08 38.18 36.06 38.28C35.98 38.28 35.89 38.32 35.8 38.37C35.69 38.43 35.6 38.53 35.52 38.67C35.42 38.98 35.31 39.14 35.2 39.14C34.96 39.12 34.52 38.65 33.87 37.72C33.74 37.49 33.62 37.26 33.5 37.03C32.7 38.23 31.65 38.94 30.34 39.18C30.34 39.13 30.31 39.06 30.29 38.96C31.27 38.43 32.03 37.78 32.55 37.02C32.77 36.72 32.96 36.41 33.13 36.08C32.67 34.84 32.41 33.45 32.35 31.92C32 32.69 31.59 33.32 31.13 33.79C31.11 33.79 31.07 33.75 31.02 33.69C31.75 32.2 32.23 30.3 32.44 27.98ZM33.47 35.22C33.82 34.28 34.04 33.19 34.13 31.95C34.16 31.67 34.18 31.4 34.18 31.13H32.66C32.61 31.27 32.56 31.39 32.51 31.5C32.76 33.04 33.08 34.28 33.47 35.22Z" fill="#573F16"/>
<path d="M27.5704 47.2L28.5304 47.61H33.0704C33.3704 47.23 33.5704 47.04 33.6704 47.03C33.7704 47.03 33.9704 47.16 34.2704 47.4C34.5404 47.63 34.6704 47.79 34.6704 47.89C34.6704 47.96 34.6204 48.04 34.5204 48.12C34.3504 48.26 34.2504 48.35 34.2204 48.4V49.68C34.2604 50.18 34.2904 50.5 34.2904 50.65C34.2904 50.92 34.1004 51.06 33.7104 51.07C33.4204 51.07 33.2704 50.99 33.2504 50.83V50.67H31.4404V51.8H34.2904C34.6204 51.34 34.8604 51.06 35.0204 50.96C35.0504 50.96 35.0804 50.96 35.1104 50.97C35.2004 51.02 35.2904 51.08 35.3904 51.16C35.8504 51.6 36.0904 51.88 36.0904 52.02C36.0904 52.12 36.0504 52.18 35.9804 52.18H31.4604C31.4704 52.66 31.4804 53.23 31.4804 53.88C31.4804 54.06 31.2704 54.16 30.8604 54.18C30.5304 54.18 30.3604 54.12 30.3504 54C30.3804 53.65 30.3904 53.04 30.3904 52.18H28.6904C27.3704 52.18 26.5404 52.23 26.2104 52.33C26.1304 52.12 26.0404 51.91 25.9404 51.69C26.5104 51.77 27.4604 51.81 28.8004 51.81H30.4004V50.68H28.6504V50.74C28.6104 50.99 28.4104 51.11 28.0504 51.11C27.8304 51.11 27.6904 51.07 27.6404 50.99C27.6404 50.39 27.6504 49.8 27.6804 49.23V48.08C27.6704 47.59 27.6404 47.3 27.5904 47.2M32.1504 44.72C33.0004 44.99 33.4204 45.2 33.4204 45.35C33.4204 45.44 33.2304 45.5 32.8504 45.54C32.6904 45.84 32.4504 46.11 32.1104 46.36H34.1604C34.4604 45.93 34.6804 45.67 34.8204 45.58C34.8504 45.58 34.8804 45.58 34.9204 45.59C35.0004 45.63 35.0804 45.7 35.1704 45.78C35.6004 46.18 35.8104 46.44 35.8104 46.55C35.8104 46.66 35.7704 46.72 35.6904 46.72H28.6504C27.3704 46.72 26.5704 46.77 26.2504 46.88C26.1804 46.66 26.0904 46.44 25.9804 46.24C26.5304 46.32 27.4604 46.36 28.7804 46.36H29.4304C29.3104 46.29 29.2204 46.15 29.1804 45.94C29.1004 45.67 29.0204 45.47 28.9304 45.34C28.8504 45.19 28.7404 45.03 28.6004 44.87C28.6204 44.84 28.6504 44.79 28.7004 44.74C29.0204 44.8 29.2804 44.88 29.4904 44.98C29.9104 45.19 30.1204 45.44 30.1204 45.73C30.1204 45.99 30.0504 46.18 29.9204 46.3C29.8804 46.34 29.8404 46.37 29.8004 46.37H31.8204C31.9904 45.74 32.0904 45.2 32.1204 44.73M34.2904 43.55C34.3804 43.59 34.4604 43.65 34.5504 43.74C34.9804 44.14 35.1904 44.4 35.1904 44.51C35.1904 44.62 35.1504 44.68 35.0804 44.68H28.9204C27.8004 44.68 27.1004 44.73 26.8104 44.84C26.7404 44.61 26.6604 44.4 26.5604 44.2C27.0204 44.28 27.8204 44.32 28.9504 44.32H33.5304C33.8404 43.89 34.0604 43.63 34.1904 43.53C34.2204 43.53 34.2504 43.53 34.2804 43.54M28.6004 48.97H33.2204V47.94H28.6004V48.97ZM28.6004 50.37H33.2204V49.28H28.6004V50.37ZM30.4604 42.9C31.1404 42.94 31.4804 43.22 31.4804 43.75C31.4804 44.02 31.3904 44.19 31.2404 44.26C31.1604 44.28 31.0904 44.3 31.0304 44.3C30.9504 44.3 30.8104 44.18 30.6104 43.94C30.3304 43.54 29.9904 43.25 29.6004 43.07C29.6104 43.01 29.6304 42.96 29.6404 42.9C29.7304 42.9 30.0004 42.91 30.4504 42.91" fill="#573F16"/>
<path d="M9.07008 13.3C9.15008 13.35 9.24008 13.41 9.33008 13.49C9.81008 13.92 10.0501 14.21 10.0501 14.35C10.0501 14.45 10.0101 14.51 9.92008 14.51H6.10008C6.67008 15.2 7.26008 15.69 7.87008 15.97C8.54008 16.32 9.30008 16.5 10.1601 16.53C10.1601 16.62 10.1601 16.7 10.1401 16.78C10.0801 16.78 9.98008 16.86 9.85008 16.99C9.80008 17.07 9.73008 17.23 9.63008 17.48C9.59008 17.64 9.51008 17.72 9.39008 17.72C9.02008 17.72 8.41008 17.4 7.55008 16.75C6.80008 16.21 6.23008 15.46 5.83008 14.51H5.66008L5.69008 18.24C5.67008 18.47 5.48008 18.59 5.09008 18.59C4.78008 18.59 4.62008 18.51 4.62008 18.35C4.62008 17.15 4.63008 16.04 4.63008 15.02L4.61008 15.04C3.61008 16.25 2.14008 17.24 0.210078 18.02C0.150078 17.95 0.110078 17.89 0.0800781 17.84C1.74008 16.84 2.91008 15.81 3.58008 14.75C3.64008 14.65 3.69008 14.57 3.72008 14.51H2.83008C1.53008 14.51 0.730078 14.56 0.410078 14.66C0.340078 14.45 0.250078 14.24 0.140078 14.02C0.680078 14.1 1.61008 14.14 2.92008 14.14H4.64008V13.76C4.62008 13.33 4.61008 13 4.60008 12.79C5.67008 12.97 6.21008 13.14 6.21008 13.27C6.21008 13.33 6.14008 13.4 5.99008 13.48C5.77008 13.58 5.66008 13.66 5.66008 13.72V14.14H8.25008C8.58008 13.67 8.82008 13.39 8.97008 13.3C9.00008 13.3 9.04008 13.3 9.08008 13.31M0.410078 8.99999C1.37008 9.07999 1.87008 9.29999 1.91008 9.65999C1.91008 9.80999 1.89008 9.94999 1.87008 10.06C1.80008 10.28 1.66008 10.39 1.46008 10.39C1.36008 10.39 1.21008 10.23 1.00008 9.91999C0.820078 9.60999 0.600078 9.34999 0.350078 9.15999C0.380078 9.12999 0.400078 9.06999 0.420078 8.99999M3.41008 8.77998C3.48008 8.81998 3.55008 8.86999 3.62008 8.92999C3.30008 9.54999 2.97008 10.18 2.61008 10.81C2.33008 11.31 2.16008 11.67 2.12008 11.89C2.14008 12.08 2.18008 12.3 2.23008 12.55C2.30008 12.8 2.34008 13.01 2.34008 13.19C2.34008 13.51 2.17008 13.68 1.82008 13.71C1.47008 13.71 1.29008 13.54 1.28008 13.19C1.32008 12.85 1.34008 12.53 1.35008 12.25C1.35008 11.92 1.06008 11.69 0.490078 11.55C0.510078 11.45 0.530078 11.38 0.530078 11.33C0.720078 11.33 0.860078 11.35 0.960078 11.37C1.37008 11.37 1.72008 11.15 1.99008 10.72C2.42008 10.15 2.90008 9.50999 3.41008 8.78999M1.52008 7.60999C2.48008 7.66999 2.99008 7.83999 3.03008 8.13999C3.03008 8.29999 3.01008 8.43999 2.96008 8.55999C2.88008 8.78999 2.74008 8.89998 2.53008 8.89998C2.43008 8.89998 2.28008 8.75999 2.10008 8.46999C1.92008 8.18999 1.70008 7.94999 1.45008 7.75999C1.49008 7.73999 1.51008 7.68999 1.53008 7.61999M8.22008 7.38999C8.29008 7.38999 8.50008 7.53999 8.84008 7.81999C9.06008 8.02999 9.17008 8.16999 9.17008 8.24999C9.17008 8.30999 9.07008 8.38998 8.89008 8.48998C8.77008 8.55998 8.69008 8.68999 8.64008 8.88999C8.50008 10.28 8.34008 11.21 8.15008 11.67C7.95008 12.57 7.49008 13.13 6.78008 13.33C6.67008 13.33 6.61008 13.22 6.58008 13C6.57008 12.86 6.49008 12.71 6.36008 12.55C6.17008 12.37 5.94008 12.21 5.66008 12.09C5.66008 12 5.68008 11.94 5.69008 11.91C6.04008 12.01 6.36008 12.05 6.62008 12.05C6.89008 11.99 7.07008 11.83 7.15008 11.57C7.40008 11.04 7.58008 9.92999 7.69008 8.24999H6.72008C6.70008 8.60999 6.68008 8.78999 6.65008 8.78999C6.40008 11.02 5.21008 12.47 3.10008 13.13C3.08008 13.11 3.05008 13.08 3.02008 13.03C4.52008 12.17 5.39008 10.68 5.65008 8.57999C5.66008 8.48999 5.67008 8.37998 5.67008 8.23998H4.72008C4.32008 8.23998 4.05008 8.27999 3.92008 8.34999C3.85008 8.18999 3.78008 7.99999 3.70008 7.76999C3.92008 7.84999 4.24008 7.88999 4.64008 7.89999H7.51008C7.87008 7.54999 8.09008 7.36999 8.18008 7.35999M4.36008 8.75999H4.53008C4.55008 8.93999 4.57008 9.21999 4.57008 9.57999C4.57008 10.65 4.25008 11.18 3.60008 11.18C3.28008 11.18 3.11008 11.06 3.10008 10.83C3.10008 10.65 3.19008 10.48 3.36008 10.35C3.95008 9.94999 4.28008 9.41999 4.35008 8.75999M8.79008 8.95999C9.62008 9.56999 10.0501 10.13 10.0601 10.64C10.0601 11 10.0001 11.25 9.87008 11.39C9.76008 11.57 9.60008 11.65 9.37008 11.65C9.25008 11.65 9.16008 11.43 9.12008 10.98C9.00008 10.16 8.84008 9.53998 8.62008 9.10998L8.78008 8.95999H8.79008Z" fill="#573F16"/>
<path d="M2.05 27.92C3.01 28.16 3.49 28.36 3.49 28.51C3.49 28.61 3.29 28.71 2.9 28.8C2.69 29.66 2.42 30.46 2.08 31.2C2.51 31.34 2.72 31.44 2.72 31.51C2.72 31.58 2.64 31.63 2.48 31.68C2.34 31.75 2.27 31.81 2.27 31.86V35.83C2.29 36.92 2.3 37.94 2.3 38.9C2.28 39.1 2.05 39.21 1.63 39.24C1.36 39.24 1.23 39.17 1.23 39.02C1.25 37.98 1.26 36.93 1.26 35.86V32.74C0.99 33.18 0.69 33.6 0.36 33.98C0.29 33.98 0.25 33.93 0.25 33.82C1.16 32.04 1.76 30.08 2.03 27.92M3.52 31.73L4.44 32.13H7.75C8.04 31.72 8.24 31.51 8.35 31.5C8.45 31.5 8.65 31.63 8.95 31.87C9.22 32.1 9.35 32.26 9.35 32.36C9.35 32.44 9.29 32.52 9.18 32.59C9.01 32.72 8.9 32.82 8.86 32.88V33.45C8.9 33.66 8.93 33.8 8.93 33.87C8.93 34.14 8.74 34.27 8.35 34.28C8.06 34.28 7.91 34.21 7.89 34.07H7.21V35.13H8.01C8.31 34.71 8.54 34.46 8.68 34.37C8.71 34.37 8.74 34.37 8.77 34.38C8.84 34.42 8.93 34.48 9.02 34.56C9.45 34.96 9.66 35.22 9.66 35.33C9.66 35.45 9.62 35.51 9.55 35.51H7.2V36.97H8.49C8.77 36.52 8.98 36.26 9.1 36.17C9.11 36.15 9.14 36.15 9.17 36.15C9.25 36.18 9.39 36.3 9.6 36.51C9.88 36.8 10.04 37 10.08 37.1C10.08 37.22 10.05 37.29 10 37.31H7.2C7.22 37.77 7.23 38.31 7.23 38.93C7.23 39.09 7.03 39.18 6.64 39.21C6.33 39.21 6.17 39.15 6.17 39.04C6.2 38.71 6.21 38.14 6.21 37.31H4.19C4.11 37.58 4.03 37.72 3.94 37.72C3.82 37.75 3.64 37.77 3.4 37.77C3.15 37.77 3.02 37.72 3.02 37.63C3.35 36.69 3.52 36.02 3.52 35.64C4.48 35.84 4.97 36 4.99 36.11C4.99 36.18 4.94 36.23 4.85 36.27C4.7 36.29 4.57 36.31 4.47 36.35C4.47 36.39 4.41 36.6 4.3 36.98H6.22V35.52H4.66C3.77 35.52 3.22 35.56 3 35.65C2.92 35.43 2.83 35.22 2.73 35.02C3.08 35.09 3.69 35.13 4.54 35.13H6.22V34.07H4.56V34.18C4.52 34.43 4.32 34.55 3.96 34.55C3.74 34.55 3.6 34.51 3.55 34.43C3.55 34 3.57 33.57 3.59 33.16V32.35C3.58 32 3.55 31.78 3.5 31.71M8.1 28.68C8.2 28.71 8.36 28.82 8.58 29.02C8.82 29.27 8.94 29.44 8.95 29.53C8.95 29.63 8.78 29.78 8.44 29.99V30.93H8.69C8.99 30.34 9.19 30.03 9.27 30.03C9.34 30.03 9.47 30.19 9.66 30.5C9.86 30.79 9.97 30.99 10 31.09C10 31.22 9.95 31.29 9.86 31.3H4.64C3.58 31.32 3.04 31.36 3.03 31.41C2.96 31.24 2.88 31.03 2.8 30.77C2.97 30.83 3.54 30.88 4.53 30.94H4.66C4.8 30.46 4.91 30.03 5 29.66H4.92C4.14 29.66 3.73 29.71 3.68 29.79C3.63 29.64 3.56 29.42 3.48 29.15C3.75 29.25 4.23 29.29 4.91 29.29H5.07C5.2 28.66 5.27 28.19 5.27 27.87C6.17 28.02 6.63 28.17 6.63 28.32C6.63 28.4 6.58 28.44 6.48 28.45C6.33 28.5 6.22 28.55 6.15 28.6L6 29.3H7.52C7.82 28.91 8.02 28.71 8.14 28.7M4.59 33.75H7.91V32.45H4.59V33.75ZM5.64 30.94H7.59V29.66H5.92L5.64 30.94Z" fill="#573F16"/>
<path d="M1.6 50.69C1.69 50.69 1.76 50.69 1.81 50.7C1.81 51.02 1.79 51.32 1.74 51.61C1.57 52.81 1.17 53.41 0.57 53.41C0.19 53.41 0 53.24 0 52.89C0 52.73 0.1 52.56 0.3 52.4C0.95 52.01 1.38 51.45 1.59 50.7M1.22 43.13L2.23 43.55H7.81C8.1 43.09 8.3 42.86 8.41 42.85C8.52 42.85 8.72 42.98 9.01 43.22C9.28 43.44 9.41 43.6 9.41 43.71C9.41 43.78 9.35 43.85 9.23 43.93C9.03 44.08 8.91 44.17 8.87 44.22V47.36C8.91 48.57 8.94 49.36 8.94 49.72C8.94 49.99 8.75 50.12 8.36 50.13C8.07 50.13 7.92 50.06 7.9 49.91V49.44H2.28V49.86C2.24 50.1 2.04 50.22 1.68 50.22C1.46 50.22 1.32 50.18 1.27 50.1C1.27 49 1.28 47.92 1.31 46.85V44.73C1.3 43.81 1.27 43.28 1.22 43.11M2.27 49.09H7.89V43.84H2.28V49.09H2.27ZM6.77 44.98C6.77 44.98 6.87 45.02 6.95 45.09C7.31 45.45 7.51 45.69 7.56 45.81C7.56 45.91 7.53 45.96 7.47 45.96H5.48C5.46 46.1 5.44 46.21 5.4 46.3C5.38 46.37 5.37 46.44 5.35 46.49C6.63 46.84 7.29 47.41 7.34 48.18C7.34 48.37 7.32 48.49 7.3 48.52C7.25 48.69 7.13 48.77 6.93 48.77C6.76 48.77 6.51 48.45 6.2 47.81C5.9 47.33 5.58 46.97 5.25 46.72C4.85 47.67 3.99 48.42 2.67 48.96C2.65 48.92 2.62 48.88 2.57 48.83C3.67 48.04 4.31 47.09 4.49 45.96H3.81C3.36 45.96 3.01 45.99 2.75 46.06C2.72 45.92 2.67 45.76 2.61 45.57C2.84 45.63 3.24 45.66 3.81 45.67H4.53C4.54 45.55 4.55 45.43 4.55 45.32C4.55 44.66 4.54 44.26 4.51 44.11C5.56 44.26 6.09 44.41 6.09 44.54C6.09 44.67 5.92 44.74 5.58 44.77C5.58 45.12 5.57 45.41 5.54 45.66H6.21C6.36 45.44 6.51 45.24 6.65 45.07C6.71 45.01 6.75 44.99 6.77 44.99M2.61 50.06C3.77 50.28 4.35 50.46 4.35 50.58C4.35 50.73 4.14 50.88 3.71 51.03V52.1C3.71 52.49 3.9 52.69 4.27 52.72H5.94C6.38 52.72 6.68 52.57 6.83 52.29C6.95 52.11 7.1 51.67 7.26 50.99C7.39 50.99 7.46 51 7.48 51V52.29C7.48 52.4 7.57 52.49 7.73 52.54C7.91 52.63 8 52.73 8 52.85C7.98 53.26 7.63 53.53 6.95 53.66C6.49 53.73 6.01 53.77 5.52 53.77C4.54 53.77 3.92 53.75 3.64 53.7C3.01 53.65 2.69 53.04 2.69 51.88V51.43C2.69 50.77 2.66 50.32 2.6 50.07M4.6 49.82C5.72 49.94 6.3 50.29 6.34 50.88C6.34 51.04 6.33 51.17 6.3 51.27C6.22 51.5 6.09 51.61 5.9 51.61C5.76 51.61 5.58 51.4 5.35 50.98C5.12 50.56 4.86 50.22 4.55 49.97C4.58 49.94 4.6 49.89 4.62 49.82M8.3 50.6C9.51 51.26 10.12 51.86 10.12 52.4C10.12 52.79 10.02 53.05 9.82 53.17C9.74 53.23 9.62 53.27 9.46 53.27C9.31 53.27 9.19 53.05 9.09 52.61C8.84 51.81 8.52 51.19 8.14 50.74C8.14 50.74 8.19 50.69 8.29 50.61" fill="#573F16"/>
</g>
<defs>
<clipPath id="clip0_1497_6336">
<rect width="44.88" height="54.19" fill="white"/>
</clipPath>
</defs>
</svg>
